<svg xmlns="http://www.w3.org/2000/svg" viewBox="0 0 100 100">
  <circle cx="50" cy="50" r="48" fill="#fff" stroke="#0a3d2e" stroke-width="2"/>
  <path d="M50 10 C30 10 15 25 15 45 C15 65 30 78 50 90 C70 78 85 65 85 45 C85 25 70 10 50 10Z" fill="none" stroke="#0a3d2e" stroke-width="2"/>
  <path d="M15 45 C15 45 25 55 50 55 C75 55 85 45 85 45" fill="none" stroke="#0a3d2e" stroke-width="2"/>
  <path d="M15 55 C15 55 25 65 50 65 C75 65 85 55 85 55" fill="none" stroke="#0a3d2e" stroke-width="2"/>
  <path d="M50 10 L50 90 M10 50 L90 50" stroke="#0a3d2e" stroke-width="1" opacity="0.3"/>
</svg>
